A clip of one of the best known songs made by the original band members of The Guess Who in 2004 Live in Winnipeg and loaded with energy literally during a thunderstorm!

Format                                   : MPEG-PS
File size                                : 278 MiB
Duration                                 : 14mn 31s
Overall bit rate                         : 2 676 Kbps

Video
ID                                       : 224 (0xE0)
Format                                   : MPEG Video
Format version                           : Version 2
Format profile                           : Main@Main
Format settings, BVOP                    : Yes
Format settings, Matrix                  : Custom
Format settings, GOP                     : M=3, N=15
Duration                                 : 14mn 31s
Bit rate                                 : 2 494 Kbps
Maximum bit rate                         : 2 376 Kbps
Width                                    : 480 pixels
Height                                   : 480 pixels
Display aspect ratio                     : 4:3
Frame rate                               : 29.970 fps
Standard                                 : NTSC
Color space                              : YUV
Chroma subsampling                       : 4:2:0
Bit depth                                : 8 bits
Scan type                                : Interlaced
Scan order                               : Bottom Field First
Compression mode                         : Lossy
Bits/(Pixel*Frame)                       : 0.361
Stream size                              : 259 MiB (93%)
Color primaries                          : BT.470-2 system M
Transfer characteristics                 : BT.470-2 System M
Matrix coefficients                      : BT.470-2 System B, BT.470-2 System G

Audio
ID                                       : 192 (0xC0)
Format                                   : MPEG Audio
Format version                           : Version 1
Format profile                           : Layer 2
Duration                                 : 14mn 30s
Bit rate mode                            : Constant
Bit rate                                 : 128 Kbps
Channel(s)                               : 2 channels
Sampling rate                            : 44.1 KHz
Compression mode                         : Lossy
Stream size                              : 13.3 MiB (5%)

